#N canvas 119 84 450 453 10;
#X obj 37 17 inlet;
#X obj 81 366 outlet~;
#X obj 81 337 vline~;
#X obj 118 105 unpack f f f f;
#X obj 173 147 +;
#X obj 172 192 +;
#X obj 126 224 pack f f f f;
#X obj 105 141 t f f;
#X msg 83 297 1 \$1 \, 0.7 \$2 \$1 \, 0 \$4 \$3;
#X obj 38 68 route bang;
#X connect 0 0 9 0;
#X connect 2 0 1 0;
#X connect 3 0 7 0;
#X connect 3 1 6 1;
#X connect 3 1 4 0;
#X connect 3 2 4 1;
#X connect 3 3 6 3;
#X connect 4 0 5 1;
#X connect 5 0 6 2;
#X connect 6 0 8 0;
#X connect 7 0 6 0;
#X connect 7 1 5 0;
#X connect 8 0 2 0;
#X connect 9 0 6 0;
#X connect 9 1 3 0;
