#N canvas 1140 166 450 300 10;
#X obj 137 77 drunk 10 5;
#X obj 137 126 expr 1 - $f1;
#X obj 137 99 / 10;
#X text 175 52 stereo placement;
#X obj 55 22 inlet;
#X obj 59 162 outlet;
#X obj 129 160 outlet;
#X connect 0 0 2 0;
#X connect 1 0 6 0;
#X connect 2 0 1 0;
#X connect 2 0 5 0;
#X connect 4 0 0 0;
