#N canvas 173 128 648 499 10;
#N canvas 481 619 450 300 spackle 0;
#X text 24 5 spackle;
#X obj 164 29 noise~;
#X obj 122 225 outlet~;
#X obj 228 222 outlet~;
#X floatatom 177 163 5 0 5 0 volume - -, f 5;
#X floatatom 90 88 5 0 0 2 centre - -, f 5;
#X floatatom 244 88 5 0 0 2 centre - -, f 5;
#X floatatom 164 88 5 0 0 2 Q - -, f 5;
#X obj 122 121 bp~ 144 0.8;
#X obj 228 118 bp~ 205 0.8;
#X obj 122 203 *~ 0.4;
#X obj 228 200 *~ 0.4;
#X connect 1 0 8 0;
#X connect 1 0 9 0;
#X connect 4 0 10 1;
#X connect 4 0 11 1;
#X connect 5 0 8 1;
#X connect 6 0 9 1;
#X connect 7 0 8 2;
#X connect 7 0 9 2;
#X connect 8 0 10 0;
#X connect 9 0 11 0;
#X connect 10 0 2 0;
#X connect 11 0 3 0;
#X restore 128 55 pd spackle;
#N canvas 859 47 545 576 clicks 1;
#X obj 40 46 noise~;
#X obj 125 180 *~;
#X obj 77 330 *~;
#X obj 77 352 outlet~;
#X obj 168 329 *~;
#X obj 168 351 outlet~;
#X obj 340 153 adsr~;
#X obj 362 106 loadbang;
#X obj 326 118 bng 15 250 50 0 empty empty empty 17 7 0 10 -262144
-1 -1;
#X obj 183 235 bng 15 250 50 0 empty empty empty 17 7 0 10 -262144
-1 -1;
#X text 36 13 clicks;
#X floatatom 137 96 5 550 18000 0 - - -, f 5;
#X floatatom 199 108 5 0 0 0 - - -, f 5;
#X obj 170 77 mtof;
#X obj 170 12 bng 15 250 50 0 empty empty empty 17 7 0 10 -262144 -1
-1;
#X obj 170 33 drunk 60 30;
#X obj 326 50 t b b b;
#X obj 326 28 bng 15 250 50 0 empty empty empty 17 7 0 10 -262144 -1
-1;
#X obj 170 54 + 70;
#X text 84 69 noise filter;
#X text 380 156 contour;
#X text 205 238 stereo placement;
#X obj 182 265 drunk-stereo;
#X obj 286 -3 tgl 15 0 empty empty empty 17 7 0 10 -262144 -1 -1 1
1;
#X msg 361 129 2 3 0 2;
#X obj 326 4 drunk-pulse 50 10000 5000;
#X obj 125 133 bp~ 800 0.54;
#X connect 0 0 26 0;
#X connect 1 0 2 0;
#X connect 1 0 4 0;
#X connect 2 0 3 0;
#X connect 4 0 5 0;
#X connect 6 0 1 1;
#X connect 7 0 24 0;
#X connect 8 0 6 0;
#X connect 9 0 22 0;
#X connect 11 0 26 1;
#X connect 12 0 26 2;
#X connect 13 0 11 0;
#X connect 14 0 15 0;
#X connect 15 0 18 0;
#X connect 16 0 8 0;
#X connect 16 1 14 0;
#X connect 16 2 9 0;
#X connect 17 0 16 0;
#X connect 18 0 13 0;
#X connect 22 0 2 1;
#X connect 22 1 4 1;
#X connect 23 0 25 0;
#X connect 24 0 6 0;
#X connect 25 0 17 0;
#X connect 26 0 1 0;
#X restore 280 62 pd clicks;
#X obj 216 305 dac~;
#X obj 222 262 freeverb~;
#X obj 272 148 *~;
#X obj 316 148 *~;
#X msg 42 232 roomsize \$1;
#X obj 42 211 hsl 128 15 0 1 0 0 empty empty empty -2 -8 0 10 -262144
-1 -1 1900 1;
#X obj 344 46 vsl 15 50 0 1 0 0 empty empty empty 0 -9 0 10 -262144
-1 -1 3900 1;
#X obj 422 127 *~;
#X obj 466 127 *~;
#X obj 486 39 vsl 15 50 0 1 0 0 empty empty empty 0 -9 0 10 -262144
-1 -1 4150 1;
#N canvas 850 22 557 625 bloops 1;
#X obj 86 133 noise~;
#X obj 173 295 *~;
#X obj 123 417 *~;
#X obj 123 439 outlet~;
#X obj 214 416 *~;
#X obj 214 438 outlet~;
#X obj 386 240 adsr~;
#X obj 408 193 loadbang;
#X obj 372 205 bng 15 250 50 0 empty empty empty 17 7 0 10 -262144
-1 -1;
#X obj 229 322 bng 15 250 50 0 empty empty empty 17 7 0 10 -262144
-1 -1;
#X floatatom 183 183 5 0 18000 0 - - -, f 5;
#X floatatom 250 191 5 0 0 0 - - -, f 5;
#X obj 216 164 mtof;
#X obj 216 99 bng 15 250 50 0 empty empty empty 17 7 0 10 -262144 -1
-1;
#X obj 372 137 t b b b;
#X obj 372 115 bng 15 250 50 0 empty empty empty 17 7 0 10 -262144
-1 -1;
#X text 130 156 noise filter;
#X text 426 243 contour;
#X text 251 325 stereo placement;
#X obj 228 352 drunk-stereo;
#X obj 332 84 tgl 15 0 empty empty empty 17 7 0 10 -262144 -1 -1 1
1;
#X text 50 87 bloopslike clicks but better;
#X obj 249 230 hsl 50 15 0 300 0 0 empty empty empty -2 -8 0 10 -262144
-1 -1 3300 1;
#X floatatom 249 250 5 0 0 0 - - -, f 5;
#X obj 216 120 drunk 30 14;
#X obj 216 142 + 25;
#X obj 87 210 osc~ 220;
#X msg 406 215 700 200 5000 200;
#X obj 171 255 *~ 200;
#X obj 372 91 drunk-pulse 7000 20000 10000;
#X obj 171 220 bp~ 90 65;
#X connect 0 0 30 0;
#X connect 1 0 2 0;
#X connect 1 0 4 0;
#X connect 2 0 3 0;
#X connect 4 0 5 0;
#X connect 6 0 1 1;
#X connect 7 0 27 0;
#X connect 8 0 6 0;
#X connect 9 0 19 0;
#X connect 10 0 26 0;
#X connect 10 0 30 1;
#X connect 11 0 30 2;
#X connect 12 0 10 0;
#X connect 13 0 24 0;
#X connect 14 0 8 0;
#X connect 14 1 13 0;
#X connect 14 2 9 0;
#X connect 15 0 14 0;
#X connect 19 0 2 1;
#X connect 19 1 4 1;
#X connect 20 0 29 0;
#X connect 22 0 23 0;
#X connect 22 0 28 1;
#X connect 24 0 25 0;
#X connect 25 0 12 0;
#X connect 26 0 1 0;
#X connect 27 0 6 0;
#X connect 28 0 1 0;
#X connect 29 0 15 0;
#X connect 30 0 28 0;
#X restore 416 65 pd bloops;
#X connect 0 0 3 0;
#X connect 0 1 3 1;
#X connect 1 0 4 0;
#X connect 1 1 5 0;
#X connect 3 0 2 0;
#X connect 3 1 2 1;
#X connect 4 0 3 0;
#X connect 5 0 3 1;
#X connect 6 0 3 0;
#X connect 7 0 6 0;
#X connect 8 0 4 1;
#X connect 8 0 5 1;
#X connect 9 0 3 0;
#X connect 10 0 3 1;
#X connect 11 0 9 1;
#X connect 11 0 10 1;
#X connect 12 0 9 0;
#X connect 12 1 10 0;
