#N canvas 8 231 648 499 10;
#N canvas 538 50 787 346 spackle 0;
#X text 24 5 spackle;
#X obj 164 29 noise~;
#X obj 122 225 outlet~;
#X obj 228 222 outlet~;
#X floatatom 177 163 5 0 5 0 volume - -, f 5;
#X floatatom 33 90 5 0 0 2 spackle-centre-l spackle-centre-l -, f
5;
#X floatatom 244 88 5 0 0 2 spakcle-centre-r spackle-centre-r -, f
5;
#X floatatom 164 88 5 0 0 2 Q - -, f 5;
#X obj 122 121 bp~ 144 0.8;
#X obj 228 118 bp~ 205 0.8;
#X obj 122 203 *~ 0.4;
#X obj 228 200 *~ 0.4;
#X obj 365 100 drunk-pulse 60000 900000 300000;
#X obj 476 44 tgl 15 0 empty spackle-centre-wander spackle-centre-wander
17 7 0 10 -262144 -1 -1 1 1;
#X obj 365 122 bng 15 250 50 0 empty empty empty 17 7 0 10 -262144
-1 -1;
#X obj 365 218 line;
#X obj 365 142 random 70;
#X obj 365 174 + 140;
#X obj 365 240 s spackle-centre-l;
#X obj 572 102 drunk-pulse 60000 900000 300000;
#X obj 572 124 bng 15 250 50 0 empty empty empty 17 7 0 10 -262144
-1 -1;
#X obj 572 220 line;
#X obj 572 144 random 70;
#X obj 572 176 + 140;
#X obj 572 242 s spackle-centre-r;
#X msg 365 196 \$1 3000;
#X msg 572 198 \$1 3000;
#X obj 489 125 loadbang;
#X msg 489 147 35;
#X connect 1 0 8 0;
#X connect 1 0 9 0;
#X connect 4 0 10 1;
#X connect 4 0 11 1;
#X connect 5 0 8 1;
#X connect 6 0 9 1;
#X connect 7 0 8 2;
#X connect 7 0 9 2;
#X connect 8 0 10 0;
#X connect 9 0 11 0;
#X connect 10 0 2 0;
#X connect 11 0 3 0;
#X connect 12 0 14 0;
#X connect 13 0 12 0;
#X connect 13 0 19 0;
#X connect 14 0 16 0;
#X connect 15 0 18 0;
#X connect 16 0 17 0;
#X connect 17 0 25 0;
#X connect 19 0 20 0;
#X connect 20 0 22 0;
#X connect 21 0 24 0;
#X connect 22 0 23 0;
#X connect 23 0 26 0;
#X connect 25 0 15 0;
#X connect 26 0 21 0;
#X connect 27 0 28 0;
#X connect 28 0 17 0;
#X connect 28 0 23 0;
#X restore 128 55 pd spackle;
#N canvas 609 35 545 622 clicks 0;
#X obj 40 46 noise~;
#X obj 125 180 *~;
#X obj 77 352 outlet~;
#X obj 168 351 outlet~;
#X obj 362 106 loadbang;
#X obj 326 118 bng 15 250 50 0 empty empty empty 17 7 0 10 -262144
-1 -1;
#X obj 183 235 bng 15 250 50 0 empty empty empty 17 7 0 10 -262144
-1 -1;
#X text 36 13 clicks;
#X floatatom 137 96 5 550 18000 0 - - -, f 5;
#X floatatom 199 108 5 0 0 0 - - -, f 5;
#X obj 170 77 mtof;
#X obj 170 12 bng 15 250 50 0 empty empty empty 17 7 0 10 -262144 -1
-1;
#X obj 326 50 t b b b;
#X obj 326 28 bng 15 250 50 0 empty empty empty 17 7 0 10 -262144 -1
-1;
#X obj 170 54 + 70;
#X text 84 69 noise filter;
#X text 380 156 contour;
#X text 205 238 stereo placement;
#X obj 182 265 drunk-stereo;
#X obj 286 -3 tgl 15 0 empty clicks-toggle empty 17 7 0 10 -262144
-1 -1 1 1;
#X msg 361 129 2 3 0 2;
#X obj 326 4 drunk-pulse 50 10000 5000;
#X obj 125 133 bp~ 800 0.54;
#X obj 170 33 random 60 30;
#X obj 340 153 adsr~;
#X obj 77 330 *~ 0.5;
#X obj 168 329 *~ 0.5;
#X connect 0 0 22 0;
#X connect 1 0 25 0;
#X connect 1 0 26 0;
#X connect 4 0 20 0;
#X connect 5 0 24 0;
#X connect 6 0 18 0;
#X connect 8 0 22 1;
#X connect 9 0 22 2;
#X connect 10 0 8 0;
#X connect 11 0 23 0;
#X connect 12 0 5 0;
#X connect 12 1 11 0;
#X connect 12 2 6 0;
#X connect 13 0 12 0;
#X connect 14 0 10 0;
#X connect 18 0 25 1;
#X connect 18 1 26 1;
#X connect 19 0 21 0;
#X connect 20 0 24 0;
#X connect 21 0 13 0;
#X connect 22 0 1 0;
#X connect 23 0 14 0;
#X connect 24 0 1 1;
#X connect 25 0 2 0;
#X connect 26 0 3 0;
#X restore 280 62 pd clicks;
#X obj 222 262 freeverb~;
#X obj 272 148 *~;
#X obj 316 148 *~;
#X msg 42 232 roomsize \$1;
#X obj 42 211 hsl 128 15 0 1 0 0 empty roomsize empty -2 -8 0 10 -262144
-1 -1 4191 1;
#X obj 344 46 vsl 15 50 0 1 0 0 empty clicks-level empty 0 -9 0 10
-262144 -1 -1 2450 1;
#X obj 422 127 *~;
#X obj 466 127 *~;
#X obj 486 39 vsl 15 50 0 1 0 0 empty bloops-level empty 0 -9 0 10
-262144 -1 -1 2450 1;
#N canvas 587 86 557 648 bloops 0;
#X obj 86 133 noise~;
#X obj 173 295 *~;
#X obj 123 439 outlet~;
#X obj 214 438 outlet~;
#X obj 408 193 loadbang;
#X obj 372 205 bng 15 250 50 0 empty empty empty 17 7 0 10 -262144
-1 -1;
#X obj 229 322 bng 15 250 50 0 empty empty empty 17 7 0 10 -262144
-1 -1;
#X floatatom 183 183 5 0 18000 0 - - -, f 5;
#X floatatom 250 191 5 0 0 0 - - -, f 5;
#X obj 216 164 mtof;
#X obj 216 99 bng 15 250 50 0 empty empty empty 17 7 0 10 -262144 -1
-1;
#X obj 372 137 t b b b;
#X obj 372 115 bng 15 250 50 0 empty empty empty 17 7 0 10 -262144
-1 -1;
#X text 130 156 noise filter;
#X text 426 243 contour;
#X text 251 325 stereo placement;
#X obj 228 352 drunk-stereo;
#X obj 262 16 tgl 15 0 empty bloops-toggle empty 17 7 0 10 -262144
-1 -1 1 1;
#X text 50 87 bloopslike clicks but better;
#X obj 249 230 hsl 50 15 0 300 0 0 empty empty empty -2 -8 0 10 -262144
-1 -1 0 1;
#X floatatom 249 250 5 0 0 0 - - -, f 5;
#X obj 216 142 + 25;
#X obj 87 210 osc~ 220;
#X obj 171 255 *~ 200;
#X obj 171 220 bp~ 90 65;
#X obj 216 120 random 30;
#X obj 386 240 adsr~;
#X floatatom 228 374 5 0 0 0 - - -, f 5;
#X floatatom 298 392 5 0 0 0 - - -, f 5;
#X obj 333 44 drunk-pulse 60000 600000 60000;
#X obj 338 72 tgl 15 0 empty empty empty 17 7 0 10 -262144 -1 -1 0
1;
#X msg 406 215 700 200 5000 500;
#X obj 372 91 drunk-pulse 7000 20000 20000;
#X obj 123 417 *~ 0.5;
#X obj 214 416 *~ 0.5;
#X connect 0 0 24 0;
#X connect 1 0 33 0;
#X connect 1 0 34 0;
#X connect 4 0 31 0;
#X connect 5 0 26 0;
#X connect 6 0 16 0;
#X connect 7 0 22 0;
#X connect 7 0 24 1;
#X connect 8 0 24 2;
#X connect 9 0 7 0;
#X connect 10 0 25 0;
#X connect 11 0 5 0;
#X connect 11 1 10 0;
#X connect 11 2 6 0;
#X connect 12 0 11 0;
#X connect 16 0 27 0;
#X connect 16 0 33 1;
#X connect 16 1 28 0;
#X connect 16 1 34 1;
#X connect 17 0 29 0;
#X connect 19 0 20 0;
#X connect 19 0 23 1;
#X connect 21 0 9 0;
#X connect 22 0 1 0;
#X connect 23 0 1 0;
#X connect 24 0 23 0;
#X connect 25 0 21 0;
#X connect 26 0 1 1;
#X connect 29 0 30 0;
#X connect 30 0 32 0;
#X connect 31 0 26 0;
#X connect 32 0 12 0;
#X connect 33 0 2 0;
#X connect 34 0 3 0;
#X restore 416 65 pd bloops;
#X obj 225 304 output~;
#N canvas 462 429 450 323 set-defaults 0;
#X obj 42 20 loadbang;
#X msg 42 42 \; pd dsp 1 \; output-ctl 1 \; roomsize 0.33 \; spackle-centre-wander
1 \; clicks-level 0.5 \; clicks-toggle 1 \; bloops-level 0.5 \; bloops-toggle
1 \; screeps-level 0.1 \; screeps-toggle 1 \;;
#X connect 0 0 1 0;
#X restore 545 473 pd set-defaults;
#X obj 308 277 r output-ctl;
#X obj 545 129 *~;
#X obj 589 129 *~;
#X obj 609 41 vsl 15 50 0 0.3 0 0 empty screeps-level empty 0 -9 0
10 -262144 -1 -1 1633 1;
#N canvas 813 153 594 625 screeps 0;
#X obj 86 133 noise~;
#X obj 173 295 *~;
#X obj 123 439 outlet~;
#X obj 214 438 outlet~;
#X obj 408 193 loadbang;
#X obj 372 205 bng 15 250 50 0 empty empty empty 17 7 0 10 -262144
-1 -1;
#X obj 229 322 bng 15 250 50 0 empty empty empty 17 7 0 10 -262144
-1 -1;
#X floatatom 183 183 5 0 18000 0 - - -, f 5;
#X floatatom 223 189 5 0 0 0 - - -, f 5;
#X obj 216 164 mtof;
#X obj 216 99 bng 15 250 50 0 empty empty empty 17 7 0 10 -262144 -1
-1;
#X obj 372 137 t b b b;
#X obj 372 115 bng 15 250 50 0 empty empty empty 17 7 0 10 -262144
-1 -1;
#X text 130 156 noise filter;
#X text 426 243 contour;
#X text 251 325 stereo placement;
#X obj 228 352 drunk-stereo;
#X obj 366 43 tgl 15 0 empty screeps-toggle empty 17 7 0 10 -262144
-1 -1 1 1;
#X obj 249 230 hsl 50 15 0 10 0 0 empty empty empty -2 -8 0 10 -262144
-1 -1 0 1;
#X floatatom 249 250 5 0 0 0 - - -, f 5;
#X obj 87 210 osc~ 220;
#X obj 171 220 bp~ 90 65;
#X obj 216 120 random 30;
#X obj 386 240 adsr~;
#X floatatom 228 374 5 0 0 0 - - -, f 5;
#X floatatom 298 392 5 0 0 0 - - -, f 5;
#X text 23 47 screeps like bloops but higher and less frequent;
#X obj 216 142 + 100;
#X msg 406 215 3000 2000 5000 2000;
#X obj 123 417 *~ 0.5;
#X obj 214 416 *~ 0.5;
#X obj 372 91 drunk-pulse 40000 3.6e+06 60000;
#X obj 290 198 / 10;
#X obj 290 176 random 31;
#X obj 171 255 *~ 2;
#X connect 0 0 21 0;
#X connect 1 0 29 0;
#X connect 1 0 30 0;
#X connect 4 0 28 0;
#X connect 5 0 23 0;
#X connect 6 0 16 0;
#X connect 7 0 20 0;
#X connect 7 0 21 1;
#X connect 8 0 21 2;
#X connect 9 0 7 0;
#X connect 10 0 22 0;
#X connect 11 0 5 0;
#X connect 11 1 10 0;
#X connect 11 2 6 0;
#X connect 11 2 33 0;
#X connect 12 0 11 0;
#X connect 16 0 24 0;
#X connect 16 0 29 1;
#X connect 16 1 25 0;
#X connect 16 1 30 1;
#X connect 17 0 31 0;
#X connect 18 0 19 0;
#X connect 18 0 34 1;
#X connect 20 0 1 0;
#X connect 21 0 34 0;
#X connect 22 0 27 0;
#X connect 23 0 1 1;
#X connect 27 0 9 0;
#X connect 28 0 23 0;
#X connect 29 0 2 0;
#X connect 30 0 3 0;
#X connect 31 0 12 0;
#X connect 32 0 18 0;
#X connect 33 0 32 0;
#X connect 34 0 1 0;
#X restore 539 67 pd screeps;
#X connect 0 0 2 0;
#X connect 0 1 2 1;
#X connect 1 0 3 0;
#X connect 1 1 4 0;
#X connect 2 0 12 0;
#X connect 2 1 12 1;
#X connect 3 0 2 0;
#X connect 4 0 2 1;
#X connect 5 0 2 0;
#X connect 6 0 5 0;
#X connect 7 0 3 1;
#X connect 7 0 4 1;
#X connect 8 0 2 0;
#X connect 9 0 2 1;
#X connect 10 0 8 1;
#X connect 10 0 9 1;
#X connect 11 0 8 0;
#X connect 11 1 9 0;
#X connect 14 0 12 2;
#X connect 15 0 2 0;
#X connect 16 0 2 1;
#X connect 17 0 15 1;
#X connect 17 0 16 1;
#X connect 18 0 15 0;
#X connect 18 1 16 0;
